<?xml version="1.0" encoding="utf-8"?>
<!-- Generator: Adobe Illustrator 22.0.1, SVG Export Plug-In . SVG Version: 6.00 Build 0)  -->
<svg version="1.1" id="Слой_1" xmlns="http://www.w3.org/2000/svg" xmlns:xlink="http://www.w3.org/1999/xlink" x="0px" y="0px"
	 viewBox="0 0 1080 1080" style="enable-background:new 0 0 1080 1080;" xml:space="preserve">
<style type="text/css">
	.st0{fill:#FFFFFF;}
</style>
<g id="Logo">
	<path class="st0" d="M54.4,488.3v21.9h11.7L43,596h25.7l7.2-26.9h40.4l7.2,26.9H149l-28.8-107.8H54.4z M81.7,547.2l10-37.1h8.5
		l10,37.1H81.7z"/>
	<polygon class="st0" points="224.1,510.1 232.2,510.1 232.2,550.9 158.5,484 158.5,596 191.2,596 191.2,574.2 183.2,574.2 
		183.2,546.8 236,596 256.9,596 256.9,488.3 224.1,488.3 	"/>
	<polygon class="st0" points="266.4,510.1 280.5,510.1 280.5,596 305.2,596 305.2,488.3 266.4,488.3 	"/>
	<polygon class="st0" points="324.1,484 324.1,596 356.9,596 356.9,574.2 348.9,574.2 348.9,521.5 371.9,532.1 371.9,596 396.6,596 
		396.6,532.1 419.6,521.5 419.6,574.2 411.6,574.2 411.6,596 444.3,596 444.3,484 384.3,512.8 	"/>
	<polygon class="st0" points="453.8,510.1 468,510.1 468,596 566.4,596 566.4,556.3 541.7,561.9 541.7,574.2 492.7,574.2 
		492.7,553.1 533,553.1 533,531.2 492.7,531.2 492.7,510.1 541.7,510.1 541.7,522.4 566.4,528 566.4,488.3 453.8,488.3 	"/>
	<polygon class="st0" points="574,510.1 588.1,510.1 588.1,596 612.9,596 612.9,560.6 654,560.6 654,538.8 612.9,538.8 612.9,510.1 
		654,510.1 654,521.7 678.7,527.2 678.7,488.3 574,488.3 	"/>
	<polygon class="st0" points="681.5,510.1 695.7,510.1 695.7,596 794.2,596 794.2,556.3 769.4,561.9 769.4,574.2 720.5,574.2 
		720.5,553.1 760.7,553.1 760.7,531.2 720.5,531.2 720.5,510.1 769.4,510.1 769.4,522.4 794.2,528 794.2,488.3 681.5,488.3 	"/>
	<polygon class="st0" points="810.3,542 882.9,560.6 882.9,574.2 835,574.2 835,566.5 810.3,560.6 810.3,596 907.6,596 907.6,543.4 
		835,524.8 835,510.1 882.9,510.1 882.9,519.5 907.6,525.7 907.6,488.3 810.3,488.3 	"/>
	<polygon class="st0" points="919,488.3 919,531.4 943.7,525.8 943.7,510.1 959.6,510.1 959.6,596 984.4,596 984.4,510.1 
		1000.3,510.1 1000.3,525.8 1025,531.4 1025,488.3 	"/>
</g>
</svg>
