<?xml version="1.0" encoding="utf-8"?>
<!-- Generator: Adobe Illustrator 22.0.1, SVG Export Plug-In . SVG Version: 6.00 Build 0)  -->
<svg version="1.1" id="Слой_1" xmlns="http://www.w3.org/2000/svg" xmlns:xlink="http://www.w3.org/1999/xlink" x="0px" y="0px"
	 viewBox="0 0 1080 1080" style="enable-background:new 0 0 1080 1080;" xml:space="preserve">
<style type="text/css">
	.st0{fill:url(#SVGID_1_);}
	.st1{fill:#662D91;}
</style>
<g>
	<linearGradient id="SVGID_1_" gradientUnits="userSpaceOnUse" x1="256.8192" y1="540.0007" x2="823.2817" y2="540.0007">
		<stop  offset="0" style="stop-color:#480054"/>
		<stop  offset="0.9944" style="stop-color:#510054"/>
	</linearGradient>
	<path class="st0" d="M582.4,541.3C471.9,431.1,363.8,323.3,256.8,216.5c41.9-41.7,82.7-82.2,122.3-121.5
		C526,242,675.4,391.4,823.3,539.3C675.6,686.9,526,836.5,377.5,985c-38.5-38.3-79.3-78.8-120.1-119.4
		C364.9,758.4,473,650.5,582.4,541.3z"/>
	<path class="st1" d="M379.1,95C526,242,675.4,391.4,823.3,539.3C675.6,686.9,526,836.5,377.5,985c-38.5-38.3-79.3-78.8-120.1-119.4
		c107.5-107.3,215.6-215.1,325-324.3C471.9,431.1,363.8,323.3,256.8,216.5C298.8,174.8,339.5,134.3,379.1,95 M379.2,48.4l-23.4,23.2
		L233.5,193L210,216.4l23.5,23.4l302.1,301.5L306.2,770.2l-72.2,72l-23.5,23.4l23.5,23.4l22,21.8l98.2,97.6l23.3,23.2l23.3-23.3
		l84.5-84.5l361.2-361.2l23.3-23.3l-23.3-23.3L525.5,194.8L402.4,71.6L379.2,48.4L379.2,48.4z"/>
</g>
</svg>
