<?xml version="1.0" encoding="utf-8"?>
<!-- Generator: Adobe Illustrator 22.0.1, SVG Export Plug-In . SVG Version: 6.00 Build 0)  -->
<svg version="1.1" id="Слой_1" xmlns="http://www.w3.org/2000/svg" xmlns:xlink="http://www.w3.org/1999/xlink" x="0px" y="0px"
	 viewBox="0 0 1080 1080" style="enable-background:new 0 0 1080 1080;" xml:space="preserve">
<style type="text/css">
	.st0{fill:#FFFFFF;}
</style>
<g>
	<g id="sxodim">
		<path class="st0" d="M1030.1,539.3c-0.7,5-1.5,9.9-2.1,14.9c-2.7,22.8-5.3,45.5-7.9,68.3c-0.6,5-1.1,10-1.7,15.3
			c-19.7,0-39.3,0-59.3,0c0.7-6.2,1.4-12.4,2.1-18.5c2.2-18.3,4.3-36.6,6.5-55c0.7-5.8,1.3-11.6,2.1-17.3c1-6.8-0.3-12.7-6.7-16.1
			c-6.8-3.6-13.5-2.5-19.5,2c-5.8,4.3-6.9,10.6-7.6,17.2c-2.6,22-5.2,44-7.9,65.9c-0.8,6.4-1.6,12.9-2.2,19.3
			c-0.2,1.9-0.7,2.8-2.8,2.8c-18.4-0.1-36.7,0-55.1-0.1c-0.4,0-0.9-0.1-1.7-0.3c0.7-6.6,1.5-13.1,2.2-19.6c2.4-20.3,4.8-40.6,7.2-61
			c0.4-3.7,0.9-7.3,1.3-11c0.7-6.8-0.9-12.5-7.5-15.8c-6.1-3-14.5-1.6-19.7,3.1c-4.1,3.7-5.8,8.4-6.4,13.6
			c-2.3,19.5-4.6,39.1-6.9,58.6c-1.2,9.8-2.3,19.5-3.5,29.3c-0.1,0.9-0.4,1.7-0.6,2.8c-19.5,0-38.9,0-58.8,0
			c5.4-46.3,10.7-92.4,16.1-138.6c19.3,0,38.3,0,57.8,0c-0.6,6.3-1.2,12.4-1.9,19.5c1.2-1.1,1.6-1.4,1.9-1.8
			c8.3-12.3,20.7-17.1,34.7-19.1c8.6-1.2,17.2-1.1,25.6,1.3c10.7,3.1,18.5,9.2,21,20.7c0.1,0.3,0.3,0.6,0.5,0.9
			c0.1,0.1,0.2,0.1,0.5,0.3c0.3-0.2,0.7-0.3,0.9-0.6c8.6-12.9,21.3-19,36.1-21.6c11.8-2.1,23.6-2.5,35.3,0.4
			c15.2,3.8,25.5,12.5,27.7,28.9c0.1,0.4,0.4,0.8,0.6,1.2C1030.1,532.6,1030.1,536,1030.1,539.3z"/>
		<path class="st0" d="M697.6,436.5c-2.9,23.9-5.8,47.7-8.7,71.6c-2.8,23.4-5.5,46.9-8.3,70.3c-2.2,18.9-4.5,37.7-6.8,56.6
			c-0.2,1.7-0.3,3.2-2.8,3.2c-16.7-0.1-33.4-0.1-50-0.1c-0.5,0-1.1-0.2-2-0.3c0.9-7.9,1.8-15.6,2.7-23.4c-3.1-1-5.1-0.7-7,2.3
			c-10,15.9-24.5,24-43.2,24.7c-8.5,0.3-16.8-0.4-24.6-3.9c-15.1-6.9-23.5-19.2-26.6-34.9c-5.6-28.2-2-55.1,14.2-79.3
			c14.8-22.1,41.8-31.8,66.8-24.7c11.9,3.4,20.9,10.4,25.5,22.3c0.1,0.3,0.3,0.6,0.4,0.9c0,0.1,0.2,0.1,0.7,0.3
			c0.6-5.2,1.3-10.2,1.9-15.3c2.7-23,5.5-46,8.2-68.9c0.1-0.4,0.3-0.9,0.4-1.3C658.1,436.5,677.8,436.5,697.6,436.5z M625.3,557.1
			c-0.2-2.2-0.4-4.9-0.8-7.7c-1.2-8-5.6-13.3-12-14.9c-7.1-1.7-13.9,0.6-18.2,7.6c-3.1,5-5.5,10.7-7.1,16.5
			c-2.7,9.8-3.4,19.8-0.7,29.8c2.4,8.6,10.9,13.6,19.2,11.4c6-1.6,9.9-5.9,12.7-11.2C623.5,578.9,624.5,568.4,625.3,557.1z"/>
		<path class="st0" d="M406.6,643.5c-5.1-0.7-10.2-1.3-15.2-2.2c-19.6-3.5-36.4-11.6-47.3-29.2c-5.4-8.8-7.9-18.5-8.6-28.6
			c-3.2-46.4,28.5-79.5,69-87c20.5-3.8,41-4,61,2.7c31.5,10.6,46.2,36.6,44.1,69c-2.3,35.1-30,65.1-68.1,72.5
			c-6.2,1.2-12.5,1.9-18.8,2.8C417.4,643.5,412,643.5,406.6,643.5z M428,520.9c-9.1,25.3-25.7,41.1-51.7,47.7
			c24.3,6.6,37.4,22.4,41.2,46.6c9.2-24.4,25.8-40.2,51.7-46.6C444.6,561.9,431.6,546,428,520.9z"/>
		<path class="st0" d="M49.9,597.1c0.4-0.9,0.7-1.8,1.1-2.8c17.9,0,35.7,0,53.6,0c0.3,2.9,0.4,5.5,0.9,8.1c0.7,4.3,3.1,7.5,7.1,9.1
			c9.2,3.7,18.5,3.9,27.7-0.1c5.5-2.4,8-6.8,7.7-12.6c-0.3-5.6-3.7-9-8.7-10.2c-9.2-2.2-18.6-3.9-27.9-5.8
			c-8.9-1.8-17.9-3.1-26.5-5.5C73,574,65.5,566,64.5,553.2c-1.6-20.2,4.9-40.5,26.1-50.4c6.7-3.1,14-5.5,21.3-6.7
			c20.2-3.3,40.6-3.3,60.7,1.1c5,1.1,9.9,2.8,14.5,5.1c13.4,6.8,19.2,18.2,18.8,32.9c0,2.1-0.2,4.2-0.4,6.5c-17.1,0-34,0-51.1,0
			c0-0.9-0.1-1.9-0.1-2.8c-0.1-9.1-3.5-13.3-12.3-15.3c-5.3-1.2-10.7-1.3-15.8,0.8c-6.2,2.5-10.1,9-9.1,15.6
			c0.7,4.6,3.7,7.6,7.8,8.8c6.8,1.9,13.9,3.3,20.9,4.7c10.3,2.1,20.8,3.3,30.9,6.1c17.7,5,24.4,16.4,22.8,35.4
			c-2.2,24.8-17.4,38.3-41.1,44.1c-7.8,1.9-15.9,2.4-23.8,3.6c-1.3,0.2-2.6,0.5-3.9,0.7c-6.7,0-13.4,0-20.2,0
			c-1.8-0.3-3.5-0.5-5.3-0.8c-8.5-1.4-17.1-2.1-25.4-4.3c-11.6-3.1-21.5-9.1-26.5-20.8c-1.6-3.7-2.3-7.9-3.4-11.8
			C49.9,602.9,49.9,600,49.9,597.1z"/>
		<path class="st0" d="M776.8,436.5c-1,9.5-2,19.1-3.1,28.6c-0.5,5-1.2,10-1.7,15c-0.2,1.6-0.4,2.7-2.5,2.7
			c-18.6-0.1-37.1,0-55.7-0.1c-0.4,0-0.8-0.2-1.5-0.3c1.8-15.4,3.5-30.6,5.3-45.9C737.4,436.5,757.1,436.5,776.8,436.5z"/>
		<path class="st0" d="M208.8,499.1c20.1,0,39.7,0,59.3,0.1c1.1,0,2.6,1.5,3.1,2.6c3.1,7.3,6,14.7,9,22c0.5,1.1,1,2.2,1.7,3.9
			c0.9-1.1,1.6-1.9,2.2-2.7c5.7-7.9,11.2-15.9,17-23.7c0.8-1.1,2.4-2.1,3.6-2.1c14.7-0.1,29.3-0.1,44-0.1c0.4,0,0.8,0.1,1.7,0.2
			c-4.9,6.9-9.6,13.5-14.3,20.2c-9.7,13.7-19.4,27.4-29.3,40.9c-1.4,2-1.3,3.4-0.3,5.4c10.8,21.9,21.6,43.9,32.4,65.9
			c0.9,1.9,1.8,3.8,2.9,6.1c-1.5,0.1-2.5,0.2-3.5,0.2c-18.1,0-36.3,0-54.4,0.1c-2.6,0-3.9-0.8-5-3.2c-3.8-9-8-18-12-26.9
			c-0.5-1-1-2-1.7-3.4c-0.9,1.2-1.6,2-2.2,2.8c-6.8,9.5-13.5,19-20.3,28.4c-0.8,1.1-2.4,2.2-3.6,2.2c-14.9,0.1-29.8,0.1-44.7,0.1
			c-0.4,0-0.8-0.1-1.8-0.3c4.1-5.7,7.9-11.2,11.8-16.6c11.9-16.7,23.7-33.4,35.6-50c1.4-1.9,1.4-3.3,0.4-5.4
			c-10.2-21.2-20.3-42.5-30.5-63.8C209.6,501.2,209.3,500.4,208.8,499.1z"/>
		<path class="st0" d="M710.2,499.3c19.8,0,39.2,0,59.3,0c-5.4,46.3-10.9,92.4-16.3,138.6c-19.8,0-39.3,0-59.3,0
			C699.3,591.6,704.8,545.5,710.2,499.3z"/>
	</g>
</g>
</svg>
