<?xml version="1.0" encoding="utf-8"?>
<!-- Generator: Adobe Illustrator 22.0.1, SVG Export Plug-In . SVG Version: 6.00 Build 0)  -->
<svg version="1.1" id="Слой_1" xmlns="http://www.w3.org/2000/svg" xmlns:xlink="http://www.w3.org/1999/xlink" x="0px" y="0px"
	 viewBox="0 0 1080 1080" style="enable-background:new 0 0 1080 1080;" xml:space="preserve">
<style type="text/css">
	.st0{fill:#FFFFFF;}
</style>
<path id="Telegram" class="st0" d="M271.7,526.3c0-2.1,0-4.2,0-6.3c2.2-2.9,3.8-6.7,6.7-8.5c6.8-4.4,13.9-8.7,21.5-11.6
	c113.8-43.8,227.7-87.3,341.6-130.9c43.4-16.6,86.9-33.3,130.3-49.9c16.9-6.5,32.6-1.3,36,17.7c0.1,0.3,0.3,0.6,0.5,0.9
	c0,4.5,0,9.1,0,13.6c-0.5,2-1.2,3.9-1.6,5.9c-26.1,122.3-52.1,244.6-78.3,366.9c-1.8,8.3-3.7,16.8-7,24.6
	c-5.6,13.3-16.4,17.7-30,13.1c-4.7-1.6-9.4-3.9-13.4-6.9c-38.1-27.7-76.1-55.6-114.2-83.4c-7.2-5.3-4.9-5.5-11.6,0.9
	C533,690.5,514,708.8,494.9,727c-5.9,5.6-12.6,9.1-21.5,8.7c0.5-7.8,1-15.2,1.5-22.7c2.3-32.6,4.6-65.1,7.1-97.7
	c0.2-2.4,1.6-5.4,3.4-7c72.2-65,144.4-129.8,216.7-194.7c3.5-3.1,7.1-6.2,10.3-9.7c1.1-1.2,1.9-3.8,1.3-5.1
	c-0.5-1.3-3.3-2.7-4.6-2.3c-5,1.3-10.3,2.4-14.5,5c-32.1,19.8-64,39.9-95.9,59.9c-60.7,38-121.3,75.9-182,113.8
	c-1.8,1.1-4.7,2.1-6.5,1.5c-40.5-12.4-80.9-25-121.4-37.7C281.7,536.8,275.6,533,271.7,526.3z"/>
</svg>
