<?xml version="1.0" encoding="utf-8"?>
<!-- Generator: Adobe Illustrator 22.0.1, SVG Export Plug-In . SVG Version: 6.00 Build 0)  -->
<svg version="1.1" id="Слой_1" xmlns="http://www.w3.org/2000/svg" xmlns:xlink="http://www.w3.org/1999/xlink" x="0px" y="0px"
	 viewBox="0 0 1080 1080" style="enable-background:new 0 0 1080 1080;" xml:space="preserve">
<style type="text/css">
	.st0{fill:#FFFFFF;}
</style>
<g id="Instagram">
	<path class="st0" d="M446,158.6c63.6,0,127.1,0,190.7,0c8.9,0.5,17.8,1.2,26.7,1.3c31.5,0.6,63,1.8,93.9,9.1
		c56.7,13.5,102.3,42.4,131.1,94.4c19,34.3,28,71.6,29.7,110.4c4.7,102.7,4.2,205.5,1.1,308.3c-0.8,24.7-3.2,49.7-8.7,73.7
		c-17.8,78.8-65.4,130.8-144.1,152.7c-31.6,8.8-64.1,10.9-96.6,11.3c-75.5,0.8-151,1.3-226.4,1.5c-38,0.1-76-1.4-113.4-8.9
		c-60.6-12.2-108.2-43.3-139.2-97.6c-19.4-33.9-26.2-71.4-29.5-109.8c-1.1-12.8-2-25.6-3-38.4c0-85.9,0-171.8,0-257.8
		c0.4-3.7,0.9-7.3,1.3-11c2.6-22.7,3.8-45.6,7.9-67.9c15.8-85.6,76.7-146.1,162.1-162.8c32.4-6.3,65.1-6.8,97.9-7.5
		C433.7,159.7,439.8,159,446,158.6z M851.2,529.6c0.3,0,0.7,0,1,0c0-28.3,0.9-56.7-0.2-84.9c-1.3-33.7-2.1-67.6-7.2-100.8
		c-8.4-54.2-40.1-90.6-94-104.4c-21.5-5.5-43.8-9.5-66-10.4c-52.5-2.1-105.2-2.3-157.8-2.6c-38-0.2-76,0.3-114,0.9
		c-28.1,0.5-56.1,1.7-83.4,8.9c-44.3,11.7-74.9,38-89.5,82.1c-11.1,33.4-13.9,68.1-14.1,102.8c-0.6,80.9-0.9,161.9,0,242.8
		c0.3,24.2,2.6,48.7,7.5,72.4c12.1,59.1,47.7,96.7,108,107.3c25.1,4.4,50.7,6.9,76.2,7.4c72,1.2,144,1.7,216,0.9
		c33.2-0.4,66.6-2.3,99.4-7c58.5-8.5,97.6-45.1,109.8-101.6c4.9-22.4,7.5-45.6,8.1-68.6C852.1,626.5,851.2,578,851.2,529.6z"/>
	<path class="st0" d="M539.7,344.2C647.7,344,735,431,735.6,539.5c0.6,108.1-87.3,196.1-195.8,196c-108.2,0-195.4-87.3-195.5-195.5
		C344.3,431.8,431.4,344.5,539.7,344.2z M666.9,540.1c0.1-70.4-56.1-126.9-126.5-127.1c-70.3-0.2-127.1,56.1-127.3,126.3
		c-0.2,70.7,56.3,127.5,126.9,127.5C610.2,666.8,666.8,610.4,666.9,540.1z"/>
	<path class="st0" d="M789,336.2c0.1,25.3-19.8,45.7-44.9,45.9c-25.5,0.3-46.2-20.1-46.3-45.4c-0.1-25.5,20.2-45.9,45.8-45.8
		C768.9,290.9,788.9,310.9,789,336.2z"/>
</g>
</svg>
