<?xml version="1.0" encoding="utf-8"?>
<!-- Generator: Adobe Illustrator 22.0.1, SVG Export Plug-In . SVG Version: 6.00 Build 0)  -->
<svg version="1.1" id="Слой_1" xmlns="http://www.w3.org/2000/svg" xmlns:xlink="http://www.w3.org/1999/xlink" x="0px" y="0px"
	 viewBox="0 0 1080 1080" style="enable-background:new 0 0 1080 1080;" xml:space="preserve">
<style type="text/css">
	.st0{fill:#FFFFFF;}
</style>
<g id="WhatsApp">
	<path class="st0" d="M161.2,921.3c-1-1-2-2-3-3c0.9-2.2,2.1-4.4,2.7-6.7c16.4-59.5,32.7-119,49.3-178.4c1.5-5.5,0.9-9.7-1.8-14.6
		c-49.3-91.2-60.1-187.1-32.5-286.7C226.5,249.6,411.1,137,595,162.2C681.6,174,756.3,211,815.9,275.8
		c96.7,105.2,128.5,228.3,89.8,365.3C841,870.9,577.2,982.2,365.4,872c-3.3-1.7-8.1-2.3-11.7-1.4c-44.9,11.4-89.8,23-134.6,34.8
		C199.7,910.5,180.5,916,161.2,921.3z M249.9,829.8c3.6-0.8,5.7-1.2,7.8-1.7c34.5-8.9,69.1-17.8,103.6-27c5.4-1.4,9.6-0.9,14.5,2.1
		c74.8,44.7,154.7,58.2,239.7,37.7c164.3-39.6,267.6-198.8,236.5-364c-30.3-160.8-182.9-273-346-253.8
		c-94.5,11.1-169.7,56.1-223.7,134.2c-47.3,68.3-65.1,144.4-52.7,226.9c6.7,44.9,23.4,85.9,48.2,123.7c3,4.6,3.6,8.6,2,13.7
		c-2.9,9-5.1,18.1-7.6,27.2C264.9,775.4,257.6,801.9,249.9,829.8z"/>
	<path class="st0" d="M641.5,716.4c-25.7,1-47.6-8.9-70-16.7C507.4,677.6,458,636,415.7,584.5c-20.3-24.8-40.6-49.4-54-78.9
		c-14.1-31-19.8-62.8-5.1-94.8c6.3-13.7,16-26.1,25-38.4c5.5-7.5,14.1-10.9,23.4-11.3c8.4-0.3,16.9-0.2,25.3,0.2
		c7.5,0.4,11.2,5.9,13.9,11.9c6,13.6,11.7,27.3,17.4,41c4.6,11,8.9,22,13.9,32.8c3.4,7.5,3.3,14.5-1.5,21
		c-7,9.6-14.2,19.1-21.6,28.3c-7.8,9.7-8.2,12.5-1.8,23.2c30.3,50.3,72,87.2,126.6,109.3c11.7,4.7,15.7,4,23.9-5.9
		c9-10.9,17.9-21.9,26.6-33c5.9-7.4,9.6-9.4,18.6-5.9c12.5,4.8,24.6,10.5,36.7,16c8.3,3.8,16.3,8.4,24.7,12.1
		c6,2.6,12.4,4.2,18.5,6.6c5.1,2,7.7,6.1,7.6,11.7c-0.4,25.5-5.7,48.6-28.4,64.5C685.8,708.8,664.8,717.7,641.5,716.4z"/>
</g>
</svg>
