<?xml version="1.0" encoding="utf-8"?>
<!-- Generator: Adobe Illustrator 22.0.1, SVG Export Plug-In . SVG Version: 6.00 Build 0)  -->
<svg version="1.1" id="Слой_1" xmlns="http://www.w3.org/2000/svg" xmlns:xlink="http://www.w3.org/1999/xlink" x="0px" y="0px"
	 viewBox="0 0 1080 1080" style="enable-background:new 0 0 1080 1080;" xml:space="preserve">
<style type="text/css">
	.st0{filter:url(#Adobe_OpacityMaskFilter);}
	.st1{fill:#EDEDED;}
	.st2{mask:url(#SVGID_1_);}
	.st3{fill:#FFFFFF;}
</style>
<g>
	<g id="aqtobe_hub">
		<defs>
			<filter id="Adobe_OpacityMaskFilter" filterUnits="userSpaceOnUse" x="52.3" y="411" width="272.3" height="258">
				<feColorMatrix  type="matrix" values="1 0 0 0 0  0 1 0 0 0  0 0 1 0 0  0 0 0 1 0"/>
			</filter>
		</defs>
		<mask maskUnits="userSpaceOnUse" x="52.3" y="411" width="272.3" height="258" id="SVGID_1_">
			<g class="st0">
				<path class="st1" d="M59.2,504c0.2-0.7,0.4-1.4,0.6-2l0.2-0.6c0.3-0.8,0.5-1.6,0.8-2.4l0.2-0.5c0.3-0.8,0.6-1.6,0.9-2.5l0.2-0.6
					c0.3-0.8,0.6-1.6,1-2.4l0.2-0.6c0.3-0.8,0.7-1.6,1-2.4l0.3-0.6c0.3-0.8,0.7-1.5,1-2.2l0.3-0.7c0.3-0.7,0.7-1.4,1-2.1l0.4-0.7
					c0.4-0.7,0.7-1.4,1.1-2.1l0.4-0.7c0.4-0.7,0.8-1.4,1.1-2.1l0.4-0.7c0.4-0.7,0.8-1.4,1.2-2.1l0.4-0.7c0.4-0.7,0.8-1.4,1.3-2
					l0.4-0.6c0.4-0.6,0.8-1.3,1.3-1.9l0.5-0.7c0.4-0.6,0.8-1.2,1.2-1.8l0.6-0.8c0.4-0.6,0.8-1.2,1.3-1.8L79,465
					c0.4-0.6,0.9-1.2,1.3-1.8l0.6-0.7c0.5-0.6,0.9-1.2,1.4-1.8l0.6-0.7c0.5-0.6,1-1.2,1.5-1.8l0.6-0.7c0.5-0.6,1-1.1,1.5-1.7
					l0.7-0.7c0.5-0.5,1-1,1.4-1.6l0.7-0.8c0.5-0.5,1-1,1.5-1.5l0.8-0.8c0.5-0.5,1-1,1.5-1.5c0.3-0.3,0.5-0.5,0.8-0.8
					c0.5-0.5,1-1,1.5-1.4l0.7-0.6c0.6-0.5,1.1-1,1.7-1.5c0.3-0.2,0.5-0.5,0.8-0.7c0.5-0.4,1-0.9,1.5-1.3c0.3-0.2,0.6-0.5,0.8-0.7
					c0.5-0.4,1.1-0.9,1.6-1.3c0.3-0.2,0.5-0.4,0.8-0.6c0.5-0.4,1.1-0.9,1.7-1.3c0.3-0.2,0.5-0.4,0.8-0.6c0.6-0.4,1.1-0.8,1.7-1.2
					c0.3-0.2,0.6-0.5,0.9-0.7c0.6-0.4,1.1-0.8,1.7-1.2c0.3-0.2,0.7-0.5,1-0.7c0.5-0.4,1.1-0.7,1.6-1.1c0.4-0.2,0.7-0.5,1.1-0.7
					c0.6-0.4,1.2-0.7,1.7-1.1c0.3-0.2,0.6-0.4,0.9-0.6c0.6-0.4,1.3-0.8,1.9-1.1c0.3-0.2,0.5-0.3,0.8-0.5c0.6-0.4,1.3-0.7,1.9-1.1
					l0.8-0.4c0.7-0.4,1.3-0.7,2-1.1l0.8-0.4c0.7-0.4,1.4-0.7,2.1-1c0.3-0.1,0.5-0.3,0.8-0.4c0.7-0.4,1.5-0.7,2.2-1l0.6-0.3
					c0.8-0.4,1.6-0.7,2.3-1.1l0.7-0.3c0.8-0.4,1.6-0.7,2.5-1l0.6-0.2c0.8-0.3,1.7-0.7,2.5-1l0.6-0.2c0.8-0.3,1.7-0.6,2.5-0.9
					l0.5-0.2c0.8-0.3,1.7-0.6,2.5-0.9l0.5-0.2c0.9-0.3,1.7-0.5,2.6-0.8l0.5-0.2c0.9-0.3,1.8-0.5,2.6-0.8l0.5-0.1
					c0.9-0.2,1.8-0.5,2.7-0.7l0.4-0.1c1-0.2,2-0.5,2.9-0.7l0.2,0c1.1-0.2,2.1-0.5,3.2-0.7l0.1,0c1-0.2,2.1-0.4,3.1-0.6l0.3,0
					c1-0.2,2-0.3,3-0.5l0.3,0c1-0.1,2-0.3,3-0.4l0.4,0c1-0.1,2-0.2,3-0.3l0.4,0c1-0.1,2-0.2,3.1-0.3l0.3,0c1.1-0.1,2.1-0.1,3.2-0.2
					l0.2,0c1.1-0.1,2.2-0.1,3.3-0.1l0.1,0c1.1,0,2.3,0,3.4,0c1.2,0,2.3,0,3.4,0l0.1,0c1.1,0,2.2,0.1,3.3,0.1l0.2,0
					c1.1,0.1,2.1,0.1,3.2,0.2l0.3,0c1,0.1,2,0.2,3.1,0.3l0.3,0c1,0.1,2,0.2,3,0.3l0.4,0c1,0.1,2,0.3,3,0.4l0.3,0c1,0.1,2,0.3,3,0.5
					l0.3,0c1.1,0.2,2.1,0.4,3.1,0.6l0.1,0c1.1,0.2,2.1,0.4,3.2,0.7l0.2,0c1,0.2,2,0.4,3,0.7l0.4,0.1c0.9,0.2,1.8,0.5,2.7,0.7
					l0.5,0.1c0.9,0.2,1.8,0.5,2.7,0.8l0.5,0.2c0.9,0.3,1.7,0.5,2.6,0.8l0.5,0.2c0.9,0.3,1.7,0.6,2.6,0.9l0.5,0.2
					c0.8,0.3,1.7,0.6,2.5,0.9l0.5,0.2c0.9,0.3,1.7,0.7,2.6,1l0.5,0.2c0.8,0.3,1.7,0.7,2.5,1l0.6,0.3c0.8,0.3,1.6,0.7,2.4,1.1
					l0.6,0.3c0.7,0.3,1.5,0.7,2.2,1.1l0.7,0.4c0.7,0.3,1.4,0.7,2.1,1l0.8,0.4c0.7,0.4,1.3,0.7,2,1.1l0.8,0.4
					c0.7,0.4,1.3,0.7,1.9,1.1c0.3,0.2,0.5,0.3,0.8,0.5c0.6,0.4,1.3,0.8,1.9,1.1c0.3,0.2,0.6,0.4,0.9,0.5c0.6,0.4,1.2,0.7,1.8,1.1
					c0.4,0.2,0.7,0.4,1,0.7c0.6,0.4,1.1,0.7,1.7,1.1c0.3,0.2,0.7,0.5,1,0.7c0.6,0.4,1.1,0.8,1.7,1.2c0.3,0.2,0.6,0.4,0.9,0.7
					c0.6,0.4,1.2,0.8,1.7,1.3c0.3,0.2,0.5,0.4,0.8,0.6c0.6,0.4,1.1,0.9,1.7,1.3l0.8,0.6c0.5,0.4,1.1,0.9,1.6,1.3
					c0.3,0.2,0.6,0.5,0.8,0.7c0.5,0.4,1,0.9,1.5,1.3c0.3,0.2,0.6,0.5,0.8,0.7c0.6,0.5,1.1,1,1.7,1.5l0.7,0.6c0.5,0.5,1,1,1.5,1.4
					c0.3,0.3,0.5,0.5,0.8,0.8c0.5,0.5,1,1,1.5,1.5c0.3,0.3,0.5,0.5,0.8,0.8c0.5,0.5,1,1,1.5,1.5l0.7,0.8c0.5,0.5,1,1.1,1.5,1.6
					l0.6,0.7c0.5,0.6,1,1.1,1.5,1.7l0.5,0.6c0.5,0.6,1,1.2,1.5,1.8l0.5,0.7c0.5,0.6,1,1.2,1.5,1.8l0.5,0.6c0.5,0.6,0.9,1.2,1.4,1.8
					l0.5,0.7c0.5,0.6,0.9,1.2,1.3,1.8l0.5,0.7c0.4,0.6,0.9,1.3,1.3,1.9l0.4,0.7c0.4,0.7,0.9,1.3,1.3,2l0.4,0.6
					c0.4,0.7,0.9,1.4,1.3,2.1l0.4,0.6c0.4,0.7,0.8,1.4,1.2,2.1l0.3,0.6c0.4,0.7,0.8,1.4,1.2,2.2l0.3,0.6c0.4,0.7,0.7,1.4,1.1,2.1
					l0.3,0.6c0.4,0.7,0.7,1.5,1.1,2.2l0.3,0.6c0.4,0.8,0.7,1.5,1.1,2.3l0.2,0.5c0.3,0.8,0.7,1.6,1,2.4l0.2,0.6
					c0.3,0.8,0.7,1.6,1,2.4l0.2,0.5c0.3,0.8,0.6,1.7,0.9,2.5l0.2,0.5c0.3,0.8,0.6,1.6,0.8,2.4l0.2,0.6c0.2,0.7,0.4,1.4,0.6,2
					c1.6,5.7-1.5,11.7-7.2,13.8c-29.1,11-73,18-122,18c-49.1,0-92.9-7-122-18C60.7,515.7,57.6,509.7,59.2,504z M317.7,576
					c-0.2,0.7-0.4,1.3-0.6,2l-0.2,0.6c-0.3,0.8-0.5,1.6-0.8,2.4l-0.2,0.5c-0.3,0.8-0.6,1.6-0.9,2.5l-0.2,0.6
					c-0.3,0.8-0.6,1.6-0.9,2.4l-0.2,0.6c-0.3,0.8-0.7,1.6-1,2.4l-0.3,0.6c-0.3,0.8-0.7,1.5-1,2.2l-0.3,0.6c-0.3,0.7-0.7,1.5-1.1,2.2
					l-0.3,0.6c-0.4,0.7-0.7,1.4-1.1,2.1l-0.4,0.7c-0.4,0.7-0.8,1.4-1.2,2.1l-0.3,0.6c-0.4,0.7-0.8,1.4-1.2,2.1l-0.4,0.6
					c-0.4,0.7-0.8,1.4-1.3,2.1l-0.4,0.6c-0.4,0.7-0.9,1.3-1.3,2l-0.4,0.7c-0.4,0.6-0.9,1.3-1.3,1.9l-0.5,0.7
					c-0.4,0.6-0.9,1.2-1.3,1.8l-0.5,0.7c-0.5,0.6-0.9,1.2-1.4,1.8l-0.5,0.7c-0.5,0.6-0.9,1.2-1.4,1.8L294,620
					c-0.5,0.6-1,1.2-1.5,1.8l-0.6,0.7c-0.5,0.5-1,1.1-1.4,1.6c-0.2,0.3-0.5,0.5-0.7,0.8c-0.5,0.5-0.9,1-1.4,1.5l-0.8,0.8
					c-0.5,0.5-0.9,1-1.4,1.5c-0.3,0.3-0.5,0.5-0.8,0.8c-0.5,0.5-1,1-1.4,1.4c-0.3,0.3-0.5,0.5-0.8,0.8c-0.5,0.5-1,1-1.5,1.4
					l-0.7,0.6c-0.6,0.5-1.1,1-1.7,1.5c-0.3,0.2-0.5,0.5-0.8,0.7c-0.5,0.4-1,0.9-1.5,1.3c-0.3,0.2-0.6,0.5-0.8,0.7
					c-0.5,0.4-1,0.9-1.6,1.3c-0.3,0.2-0.6,0.5-0.9,0.7c-0.5,0.4-1.1,0.8-1.6,1.3c-0.3,0.2-0.5,0.4-0.8,0.6c-0.6,0.4-1.1,0.8-1.7,1.3
					c-0.3,0.2-0.7,0.5-1,0.7c-0.5,0.4-1.1,0.8-1.6,1.1c-0.3,0.2-0.7,0.5-1,0.7c-0.6,0.4-1.1,0.7-1.7,1.1c-0.3,0.2-0.7,0.5-1,0.7
					c-0.6,0.4-1.2,0.8-1.8,1.1c-0.3,0.2-0.6,0.4-0.9,0.5c-0.6,0.4-1.3,0.8-1.9,1.1c-0.3,0.2-0.6,0.3-0.8,0.5
					c-0.6,0.4-1.3,0.7-1.9,1.1l-0.8,0.5c-0.7,0.4-1.3,0.7-2,1.1l-0.8,0.4c-0.7,0.4-1.4,0.7-2.1,1l-0.7,0.4c-0.7,0.4-1.5,0.7-2.2,1.1
					l-0.6,0.3c-0.8,0.4-1.6,0.7-2.4,1.1l-0.6,0.3c-0.8,0.4-1.7,0.7-2.5,1l-0.5,0.2c-0.8,0.3-1.7,0.7-2.6,1l-0.5,0.2
					c-0.8,0.3-1.7,0.6-2.5,0.9l-0.5,0.2c-0.8,0.3-1.7,0.6-2.6,0.9l-0.5,0.2c-0.9,0.3-1.7,0.5-2.6,0.8l-0.5,0.2
					c-0.9,0.3-1.8,0.5-2.7,0.8l-0.5,0.1c-0.9,0.2-1.8,0.5-2.7,0.7l-0.4,0.1c-1,0.2-2,0.5-3,0.7l-0.2,0c-1.1,0.2-2.1,0.5-3.2,0.7
					l-0.1,0c-1,0.2-2.1,0.4-3.1,0.6l-0.3,0c-1,0.2-2,0.3-3,0.5l-0.3,0c-1,0.1-2,0.3-3,0.4l-0.4,0c-1,0.1-2,0.2-3,0.3l-0.3,0
					c-1,0.1-2,0.2-3.1,0.3l-0.3,0c-1.1,0.1-2.1,0.1-3.2,0.2l-0.2,0c-1.1,0.1-2.2,0.1-3.3,0.1l-0.1,0c-1.1,0-2.3,0-3.4,0
					c-1.2,0-2.3,0-3.4,0l-0.1,0c-1.1,0-2.2-0.1-3.3-0.1l-0.2,0c-1.1-0.1-2.1-0.1-3.2-0.2l-0.3,0c-1-0.1-2-0.2-3.1-0.3l-0.4,0
					c-1-0.1-2-0.2-3-0.3l-0.4,0c-1-0.1-2-0.3-3-0.4l-0.3,0c-1-0.1-2-0.3-3-0.5l-0.3,0c-1-0.2-2.1-0.4-3.1-0.6l-0.1,0
					c-1.1-0.2-2.1-0.4-3.2-0.7l-0.2,0c-1-0.2-2-0.4-2.9-0.7l-0.4-0.1c-0.9-0.2-1.8-0.5-2.7-0.7l-0.5-0.1c-0.9-0.2-1.8-0.5-2.6-0.8
					l-0.5-0.2c-0.9-0.3-1.7-0.5-2.6-0.8l-0.5-0.2c-0.8-0.3-1.7-0.6-2.5-0.9l-0.5-0.2c-0.8-0.3-1.7-0.6-2.5-0.9l-0.6-0.2
					c-0.8-0.3-1.7-0.7-2.5-1l-0.6-0.2c-0.8-0.3-1.6-0.7-2.5-1l-0.7-0.3c-0.8-0.3-1.6-0.7-2.3-1.1l-0.6-0.3c-0.7-0.3-1.5-0.7-2.2-1
					c-0.3-0.1-0.5-0.2-0.8-0.4c-0.7-0.3-1.4-0.7-2.1-1l-0.8-0.4c-0.7-0.3-1.3-0.7-2-1l-0.8-0.5c-0.6-0.4-1.3-0.7-1.9-1.1l-0.8-0.5
					c-0.6-0.4-1.3-0.8-1.9-1.1c-0.3-0.2-0.6-0.4-0.9-0.6c-0.6-0.4-1.2-0.7-1.7-1.1c-0.4-0.2-0.7-0.5-1.1-0.7
					c-0.5-0.4-1.1-0.7-1.6-1.1c-0.3-0.2-0.7-0.5-1-0.7c-0.5-0.4-1.1-0.7-1.6-1.1c-0.3-0.2-0.7-0.5-1-0.7c-0.6-0.4-1.1-0.8-1.7-1.2
					c-0.3-0.2-0.6-0.4-0.8-0.6c-0.5-0.4-1.1-0.8-1.6-1.3c-0.3-0.2-0.6-0.5-0.9-0.7c-0.5-0.4-1-0.8-1.6-1.3c-0.3-0.2-0.6-0.5-0.8-0.7
					c-0.5-0.4-1-0.9-1.5-1.3c-0.3-0.2-0.6-0.5-0.8-0.7c-0.6-0.5-1.1-1-1.7-1.5l-0.7-0.6c-0.5-0.5-1-1-1.5-1.4
					c-0.3-0.3-0.5-0.5-0.8-0.8c-0.5-0.5-1-0.9-1.4-1.4c-0.3-0.3-0.5-0.5-0.8-0.8c-0.5-0.5-0.9-1-1.4-1.5l-0.8-0.8
					c-0.5-0.5-0.9-1-1.4-1.5l-0.7-0.8c-0.5-0.5-1-1.1-1.4-1.6l-0.6-0.7c-0.5-0.6-1-1.2-1.5-1.8c-0.2-0.2-0.4-0.5-0.6-0.7
					c-0.5-0.6-0.9-1.1-1.4-1.7c-0.2-0.3-0.4-0.5-0.6-0.8c-0.4-0.6-0.9-1.2-1.3-1.7l-0.6-0.8c-0.4-0.6-0.9-1.2-1.3-1.8l-0.6-0.8
					c-0.4-0.6-0.8-1.2-1.2-1.8l-0.5-0.7c-0.4-0.6-0.8-1.3-1.2-1.9l-0.4-0.7c-0.4-0.7-0.8-1.3-1.2-2l-0.4-0.7
					c-0.4-0.7-0.8-1.4-1.2-2.1l-0.4-0.7c-0.4-0.7-0.7-1.3-1.1-2l-0.4-0.8c-0.4-0.7-0.7-1.4-1.1-2l-0.4-0.7c-0.3-0.7-0.7-1.4-1-2.1
					l-0.3-0.7c-0.3-0.7-0.7-1.5-1-2.2l-0.3-0.6c-0.3-0.8-0.7-1.6-1-2.3l-0.2-0.6c-0.3-0.8-0.6-1.6-0.9-2.4l-0.2-0.6
					c-0.3-0.8-0.6-1.6-0.9-2.4l-0.2-0.5c-0.3-0.8-0.5-1.6-0.8-2.4l-0.2-0.6c-0.2-0.7-0.4-1.3-0.6-2c-1.6-5.7,1.5-11.7,7.2-13.8
					c29.1-11,73-18,122-18c49.1,0,92.9,7,122,18C316.2,564.3,319.2,570.3,317.7,576z"/>
			</g>
		</mask>
		<g class="st2">
			<ellipse class="st3" cx="188.4" cy="540" rx="136.1" ry="129"/>
		</g>
		<g>
			<path class="st3" d="M444.6,523.8c-2.2-2.5-4.9-4.3-7.9-5.6c-3.1-1.3-6.4-1.9-10-1.9c-5.5,0-10.4,1.2-14.7,3.6
				c-4.3,2.4-7.7,5.7-10.1,10c-2.4,4.3-3.6,9.3-3.6,15.1c0,5.8,1.2,10.8,3.6,15.2c2.4,4.3,5.8,7.7,10.1,10.1
				c4.3,2.4,9.2,3.6,14.7,3.6c3.9,0,7.4-0.7,10.6-2c3.2-1.3,5.9-3.3,8-6v7.3h12.5V517h-13.2V523.8z M440,557.8
				c-3.2,3.2-7.2,4.8-12,4.8c-4.8,0-8.8-1.6-11.9-4.8c-3.1-3.2-4.7-7.5-4.7-12.7s1.6-9.5,4.7-12.7c3.1-3.2,7.1-4.8,11.9-4.8
				c4.8,0,8.8,1.6,12,4.8c3.2,3.2,4.7,7.5,4.7,12.7S443.2,554.6,440,557.8z"/>
			<path class="st3" d="M517.4,524.3c-2.2-2.7-4.9-4.7-8-6c-3.2-1.3-6.7-2-10.6-2c-5.5,0-10.3,1.2-14.6,3.6
				c-4.3,2.4-7.6,5.8-10.1,10.1c-2.5,4.3-3.7,9.4-3.7,15c0,5.8,1.2,10.8,3.6,15.2c2.4,4.3,5.8,7.7,10.1,10.1
				c4.3,2.4,9.2,3.6,14.7,3.6c7.6,0,13.6-2.5,18-7.6v27.2h13.2V517h-12.5V524.3z M512.2,557.8c-3.2,3.2-7.2,4.8-12,4.8
				c-4.8,0-8.8-1.6-11.9-4.8c-3.1-3.2-4.7-7.5-4.7-12.7s1.6-9.5,4.7-12.7c3.1-3.2,7.1-4.8,11.9-4.8c4.8,0,8.8,1.6,12,4.8
				c3.2,3.2,4.7,7.5,4.7,12.7S515.4,554.6,512.2,557.8z"/>
			<path class="st3" d="M569.9,563.1c-2.5,0-4.5-0.7-5.8-2.2c-1.3-1.4-2-3.5-2-6.3v-26.7h15v-10.5h-15v-12.8h-13.2v12.8h-9.3v10.5
				h9.3v27c0,6.2,1.7,10.9,5.1,14.1c3.4,3.2,8.1,4.8,14.3,4.8c2.5,0,4.8-0.3,7-0.9c2.2-0.6,4.1-1.6,5.6-2.8l-3.7-9.4
				C575.3,562.3,572.8,563.1,569.9,563.1z"/>
			<path class="st3" d="M630.6,520c-4.6-2.5-9.7-3.7-15.5-3.7c-5.7,0-10.8,1.2-15.4,3.7c-4.6,2.5-8.1,5.9-10.7,10.2
				c-2.6,4.3-3.8,9.3-3.8,14.8c0,5.5,1.3,10.5,3.8,14.9c2.6,4.4,6.1,7.8,10.7,10.3c4.6,2.5,9.7,3.7,15.4,3.7
				c5.8,0,10.9-1.2,15.5-3.7c4.6-2.5,8.1-5.9,10.7-10.3c2.6-4.4,3.8-9.3,3.8-14.9c0-5.5-1.3-10.5-3.8-14.8
				C638.7,525.9,635.1,522.5,630.6,520z M627.1,557.8c-3.2,3.2-7.2,4.8-12,4.8c-4.8,0-8.8-1.6-11.9-4.8c-3.1-3.2-4.7-7.5-4.7-12.7
				s1.6-9.5,4.7-12.7c3.1-3.2,7.1-4.8,11.9-4.8c4.8,0,8.8,1.6,12,4.8c3.2,3.2,4.7,7.5,4.7,12.7S630.3,554.6,627.1,557.8z"/>
			<path class="st3" d="M703.5,519.9c-4.3-2.4-9.2-3.6-14.7-3.6c-3.6,0-7,0.6-10,1.9c-3.1,1.3-5.7,3.1-7.9,5.6v-28.7h-13.2v78.1
				h12.5v-7.3c2.2,2.7,4.9,4.7,8,6c3.2,1.3,6.7,2,10.6,2c5.5,0,10.4-1.2,14.7-3.6c4.3-2.4,7.7-5.8,10.2-10.2
				c2.5-4.4,3.7-9.4,3.7-15.1c0-5.7-1.2-10.7-3.7-15C711.2,525.7,707.8,522.3,703.5,519.9z M699.3,557.8c-3.1,3.2-7.1,4.8-11.9,4.8
				c-3.2,0-6-0.7-8.5-2.2c-2.5-1.4-4.5-3.5-6-6.2c-1.5-2.7-2.2-5.8-2.2-9.3c0-3.5,0.7-6.6,2.2-9.3c1.5-2.7,3.5-4.7,6-6.2
				c2.5-1.4,5.4-2.2,8.5-2.2c4.8,0,8.8,1.6,11.9,4.8c3.1,3.2,4.7,7.5,4.7,12.7S702.4,554.6,699.3,557.8z"/>
			<path class="st3" d="M769,520c-4.3-2.4-9.2-3.6-14.7-3.6c-5.5,0-10.5,1.2-14.9,3.7c-4.4,2.5-7.9,5.9-10.4,10.3
				c-2.5,4.4-3.7,9.3-3.7,14.8c0,5.5,1.3,10.5,3.8,14.9c2.6,4.4,6.2,7.8,10.9,10.3c4.7,2.5,10.1,3.7,16.3,3.7c4.8,0,9.2-0.8,13-2.3
				s7-3.8,9.6-6.8l-7-8.1c-4,4.1-9.1,6.1-15.3,6.1c-4.8,0-8.9-1.2-12.2-3.6c-3.3-2.4-5.3-5.7-6-9.8h44.1c0.1-1.7,0.2-3,0.2-3.9
				c0-5.8-1.2-10.8-3.6-15.2C776.7,525.8,773.3,522.4,769,520z M738.3,540.5c0.6-4.1,2.4-7.5,5.3-9.9c2.9-2.5,6.5-3.7,10.7-3.7
				c4.3,0,7.9,1.3,10.7,3.8c2.9,2.5,4.6,5.8,5.2,9.9H738.3z"/>
			<path class="st3" d="M856.2,516.3c-3.9,0-7.5,0.6-10.7,1.8c-3.2,1.2-5.9,3-8,5.3v-28.4h-13.2v78.1h13.2v-28.4
				c0-5.5,1.4-9.7,4.2-12.6c2.8-2.9,6.6-4.4,11.5-4.4c4.3,0,7.6,1.2,9.9,3.7c2.3,2.5,3.5,6.2,3.5,11.1v30.5h13.2V541
				c0-8.1-2.1-14.3-6.4-18.4C869,518.4,863.3,516.3,856.2,516.3z"/>
			<path class="st3" d="M937.7,545.4c0,5.5-1.4,9.7-4.2,12.6c-2.8,2.9-6.5,4.4-11.2,4.4c-4.2,0-7.5-1.2-9.7-3.7
				c-2.3-2.5-3.4-6.3-3.4-11.3V517H896v32.1c0,8.2,2.2,14.4,6.5,18.6c4.3,4.2,10.2,6.3,17.7,6.3c3.6,0,7-0.7,10.2-2.1
				c3.2-1.4,5.8-3.3,7.9-5.8v7.2h12.5V517h-13.2V545.4z"/>
			<path class="st3" d="M1024,530c-2.5-4.3-5.8-7.7-10.2-10.1c-4.3-2.4-9.2-3.6-14.7-3.6c-3.6,0-7,0.6-10,1.9
				c-3.1,1.3-5.7,3.1-7.9,5.6v-28.7h-13.2v78.1h12.5v-7.3c2.2,2.7,4.9,4.7,8,6c3.2,1.3,6.7,2,10.6,2c5.5,0,10.4-1.2,14.7-3.6
				c4.3-2.4,7.7-5.8,10.2-10.2c2.5-4.4,3.7-9.4,3.7-15.1C1027.7,539.4,1026.5,534.4,1024,530z M1009.7,557.8
				c-3.1,3.2-7.1,4.8-11.9,4.8c-3.2,0-6-0.7-8.5-2.2c-2.5-1.4-4.5-3.5-6-6.2c-1.5-2.7-2.2-5.8-2.2-9.3c0-3.5,0.7-6.6,2.2-9.3
				c1.5-2.7,3.5-4.7,6-6.2c2.5-1.4,5.4-2.2,8.5-2.2c4.8,0,8.8,1.6,11.9,4.8c3.1,3.2,4.7,7.5,4.7,12.7S1012.8,554.6,1009.7,557.8z"/>
		</g>
	</g>
</g>
</svg>
